<mxfile host="app.diagrams.net" modified="2023-03-07T17:51:53.320Z" agent="5.0 (Windows NT 10.0; Win64; x64) AppleWebKit/537.36 (KHTML, like Gecko) Chrome/110.0.0.0 Safari/537.36 Edg/110.0.1587.63" etag="BDbpZ-Rr2ohoU5_RJUQB" version="20.5.3" type="github">
  <diagram id="c3bdIyRVUlqoUiBtxsI0" name="Page-1">
    <mxGraphModel dx="1303" dy="713" grid="1" gridSize="10" guides="1" tooltips="1" connect="1" arrows="1" fold="1" page="1" pageScale="1" pageWidth="827" pageHeight="1169" math="0" shadow="0">
      <root>
        <mxCell id="0" />
        <mxCell id="1" parent="0" />
        <mxCell id="IiIBq-DSWv4J9PdT7-A_-29" value="" style="rounded=1;whiteSpace=wrap;html=1;" vertex="1" parent="1">
          <mxGeometry x="300" width="240" height="100" as="geometry" />
        </mxCell>
        <mxCell id="IiIBq-DSWv4J9PdT7-A_-2" value="" style="rounded=1;whiteSpace=wrap;html=1;" vertex="1" parent="1">
          <mxGeometry x="90" y="170" width="640" height="340" as="geometry" />
        </mxCell>
        <mxCell id="IiIBq-DSWv4J9PdT7-A_-5" value="" style="endArrow=classic;html=1;rounded=0;entryX=0;entryY=0.5;entryDx=0;entryDy=0;" edge="1" parent="1" target="IiIBq-DSWv4J9PdT7-A_-2">
          <mxGeometry width="50" height="50" relative="1" as="geometry">
            <mxPoint x="20" y="340" as="sourcePoint" />
            <mxPoint x="80" y="220" as="targetPoint" />
          </mxGeometry>
        </mxCell>
        <mxCell id="IiIBq-DSWv4J9PdT7-A_-14" style="edgeStyle=orthogonalEdgeStyle;rounded=0;orthogonalLoop=1;jettySize=auto;html=1;exitX=1;exitY=0.5;exitDx=0;exitDy=0;entryX=0;entryY=0.5;entryDx=0;entryDy=0;" edge="1" parent="1" source="IiIBq-DSWv4J9PdT7-A_-6" target="IiIBq-DSWv4J9PdT7-A_-13">
          <mxGeometry relative="1" as="geometry" />
        </mxCell>
        <mxCell id="IiIBq-DSWv4J9PdT7-A_-6" value="python" style="ellipse;whiteSpace=wrap;html=1;aspect=fixed;" vertex="1" parent="1">
          <mxGeometry x="120" y="205" width="80" height="80" as="geometry" />
        </mxCell>
        <mxCell id="IiIBq-DSWv4J9PdT7-A_-13" value="SQL" style="ellipse;whiteSpace=wrap;html=1;aspect=fixed;" vertex="1" parent="1">
          <mxGeometry x="270" y="205" width="80" height="80" as="geometry" />
        </mxCell>
        <mxCell id="IiIBq-DSWv4J9PdT7-A_-15" value="DB" style="shape=cylinder3;whiteSpace=wrap;html=1;boundedLbl=1;backgroundOutline=1;size=15;" vertex="1" parent="1">
          <mxGeometry x="320" y="10" width="60" height="80" as="geometry" />
        </mxCell>
        <mxCell id="IiIBq-DSWv4J9PdT7-A_-19" value="" style="curved=1;endArrow=classic;html=1;rounded=0;entryX=0.165;entryY=1.033;entryDx=0;entryDy=0;entryPerimeter=0;" edge="1" parent="1" target="IiIBq-DSWv4J9PdT7-A_-29">
          <mxGeometry width="50" height="50" relative="1" as="geometry">
            <mxPoint x="230" y="240" as="sourcePoint" />
            <mxPoint x="290" y="110" as="targetPoint" />
            <Array as="points">
              <mxPoint x="240" y="170" />
              <mxPoint x="290" y="120" />
            </Array>
          </mxGeometry>
        </mxCell>
        <mxCell id="IiIBq-DSWv4J9PdT7-A_-20" value="" style="curved=1;endArrow=classic;html=1;rounded=0;entryX=-0.012;entryY=0.853;entryDx=0;entryDy=0;entryPerimeter=0;exitX=0;exitY=0.5;exitDx=0;exitDy=0;" edge="1" parent="1" source="IiIBq-DSWv4J9PdT7-A_-2" target="IiIBq-DSWv4J9PdT7-A_-29">
          <mxGeometry width="50" height="50" relative="1" as="geometry">
            <mxPoint x="100" y="140" as="sourcePoint" />
            <mxPoint x="150" y="90" as="targetPoint" />
            <Array as="points">
              <mxPoint x="70" y="160" />
              <mxPoint x="140" y="90" />
            </Array>
          </mxGeometry>
        </mxCell>
        <mxCell id="IiIBq-DSWv4J9PdT7-A_-22" value="" style="endArrow=classic;html=1;rounded=0;exitX=1;exitY=0.5;exitDx=0;exitDy=0;" edge="1" parent="1" source="IiIBq-DSWv4J9PdT7-A_-13">
          <mxGeometry width="50" height="50" relative="1" as="geometry">
            <mxPoint x="380" y="250" as="sourcePoint" />
            <mxPoint x="440" y="245" as="targetPoint" />
          </mxGeometry>
        </mxCell>
        <mxCell id="IiIBq-DSWv4J9PdT7-A_-23" value="" style="curved=1;endArrow=classic;html=1;rounded=0;entryX=0.5;entryY=1;entryDx=0;entryDy=0;" edge="1" parent="1" target="IiIBq-DSWv4J9PdT7-A_-29">
          <mxGeometry width="50" height="50" relative="1" as="geometry">
            <mxPoint x="380" y="240" as="sourcePoint" />
            <mxPoint x="580" y="110" as="targetPoint" />
            <Array as="points">
              <mxPoint x="370" y="170" />
              <mxPoint x="490" y="140" />
            </Array>
          </mxGeometry>
        </mxCell>
        <mxCell id="IiIBq-DSWv4J9PdT7-A_-24" value="python" style="ellipse;whiteSpace=wrap;html=1;aspect=fixed;" vertex="1" parent="1">
          <mxGeometry x="270" y="300" width="80" height="80" as="geometry" />
        </mxCell>
        <mxCell id="IiIBq-DSWv4J9PdT7-A_-26" value="" style="curved=1;endArrow=classic;html=1;rounded=0;exitX=1;exitY=1;exitDx=0;exitDy=0;entryX=0;entryY=0.5;entryDx=0;entryDy=0;" edge="1" parent="1" source="IiIBq-DSWv4J9PdT7-A_-6" target="IiIBq-DSWv4J9PdT7-A_-24">
          <mxGeometry width="50" height="50" relative="1" as="geometry">
            <mxPoint x="170" y="350" as="sourcePoint" />
            <mxPoint x="220" y="300" as="targetPoint" />
            <Array as="points">
              <mxPoint x="230" y="290" />
              <mxPoint x="200" y="350" />
            </Array>
          </mxGeometry>
        </mxCell>
        <mxCell id="IiIBq-DSWv4J9PdT7-A_-27" value="" style="endArrow=classic;html=1;rounded=0;exitX=1;exitY=0.5;exitDx=0;exitDy=0;" edge="1" parent="1">
          <mxGeometry width="50" height="50" relative="1" as="geometry">
            <mxPoint x="350" y="339.5" as="sourcePoint" />
            <mxPoint x="440" y="339.5" as="targetPoint" />
          </mxGeometry>
        </mxCell>
        <mxCell id="IiIBq-DSWv4J9PdT7-A_-28" value="S3" style="ellipse;shape=cloud;whiteSpace=wrap;html=1;" vertex="1" parent="1">
          <mxGeometry x="410" y="10" width="120" height="80" as="geometry" />
        </mxCell>
        <mxCell id="IiIBq-DSWv4J9PdT7-A_-30" value="Error Handle" style="ellipse;whiteSpace=wrap;html=1;aspect=fixed;" vertex="1" parent="1">
          <mxGeometry x="370" y="410" width="80" height="80" as="geometry" />
        </mxCell>
        <mxCell id="IiIBq-DSWv4J9PdT7-A_-31" value="On Error" style="curved=1;endArrow=classic;html=1;rounded=0;exitX=0.5;exitY=1;exitDx=0;exitDy=0;entryX=0;entryY=0.5;entryDx=0;entryDy=0;" edge="1" parent="1" source="IiIBq-DSWv4J9PdT7-A_-6" target="IiIBq-DSWv4J9PdT7-A_-30">
          <mxGeometry x="-0.4772" y="7" width="50" height="50" relative="1" as="geometry">
            <mxPoint x="170" y="450" as="sourcePoint" />
            <mxPoint x="220" y="400" as="targetPoint" />
            <Array as="points">
              <mxPoint x="150" y="420" />
              <mxPoint x="310" y="420" />
            </Array>
            <mxPoint as="offset" />
          </mxGeometry>
        </mxCell>
        <mxCell id="IiIBq-DSWv4J9PdT7-A_-32" value="Error Queue" style="edgeLabel;html=1;align=center;verticalAlign=middle;resizable=0;points=[];" vertex="1" connectable="0" parent="IiIBq-DSWv4J9PdT7-A_-31">
          <mxGeometry x="0.2859" y="2" relative="1" as="geometry">
            <mxPoint as="offset" />
          </mxGeometry>
        </mxCell>
        <mxCell id="IiIBq-DSWv4J9PdT7-A_-33" value="JS" style="ellipse;whiteSpace=wrap;html=1;aspect=fixed;" vertex="1" parent="1">
          <mxGeometry x="440" y="300" width="80" height="80" as="geometry" />
        </mxCell>
        <mxCell id="IiIBq-DSWv4J9PdT7-A_-34" value="HTTP" style="ellipse;whiteSpace=wrap;html=1;aspect=fixed;" vertex="1" parent="1">
          <mxGeometry x="440" y="205" width="80" height="80" as="geometry" />
        </mxCell>
      </root>
    </mxGraphModel>
  </diagram>
</mxfile>
